# xmcd CD database file
#
# Track frame offsets:
#	150
#	17580
#	35512
#	54495
#	73532
#	91000
#	113442
#	138930
#	159722
#	178872
#	203385
#	223792
#	248120
#	267327
#	286450
#
# Disc length: 4056 seconds
#
# Revision: 5
# Processed by: cddbd v1.5.2PL0 Copyright (c) Steve Scherf et al.
# Submitted via: CDex 1.70beta3
#
DISCID=ce0fd60f
DTITLE=奥井雅美 - S-Mode #3 (Disc1)
DYEAR=2005
DGENRE=Pop
TTITLE0=天使の休息
TTITLE1=labyrinth
TTITLE2=時に愛は
TTITLE3=それは突然やってくる
TTITLE4=only one,No.1
TTITLE5=OVER THE END
TTITLE6=TURNING POINT
TTITLE7=CUTiE
TTITLE8=Just do it
TTITLE9=空にかける橋
TTITLE10=女神になりたい ～for a yours～
TTITLE11=Shuffle
TTITLE12=DEPORTATION ～but never too late～
TTITLE13=HAPPY PLACE
TTITLE14=SECOND IMPACT
EXTD=YEAR: 2005
EXTT0=
EXTT1=
EXTT2=
EXTT3=
EXTT4=
EXTT5=
EXTT6=
EXTT7=
EXTT8=
EXTT9=
EXTT10=
EXTT11=
EXTT12=
EXTT13=
EXTT14=
PLAYORDER=
